<?xml version="1.0" encoding="UTF-8" standalone="no"?>
<svg width="125px" height="74px" viewBox="0 0 125 74" version="1.1" xmlns="http://www.w3.org/2000/svg" xmlns:xlink="http://www.w3.org/1999/xlink" xmlns:sketch="http://www.bohemiancoding.com/sketch/ns">
    <!-- Generator: Sketch 3.3.2 (12043) - http://www.bohemiancoding.com/sketch -->
    <title>sniic_logo</title>
    <desc>Created with Sketch.</desc>
    <defs></defs>
    <g id="Page-1" stroke="none" stroke-width="1" fill="none" fill-rule="evenodd" sketch:type="MSPage">
        <g id="sniic_logo" sketch:type="MSArtboardGroup" transform="translate(0.065046, 0.500000)" fill="#FFFFFF">
            <path d="M18.0431337,44.4032413 C18.0431337,44.4032413 15.5207544,42.4115291 13.69787,42.4115291 C11.8749857,42.4115291 8.85296726,42.4115289 8.85296726,45.7835229 C8.85296726,50.1725905 20.1306667,54.781134 20.1306672,63.2891454 C20.1306677,71.7971568 10.7205683,72.5774143 7.74463518,72.5774146 C4.76870207,72.577415 0.00547549768,70.9931707 0.00547549768,70.9931707 L0,63.0445732 C0,63.0445732 2.56481437,65.7293922 5.7524666,65.7239167 C8.94011884,65.7184412 12.7677088,66.4050992 12.768492,62.6329181 C12.7694307,58.1120715 0.257348391,53.272635 0.165177513,45.783523 C0.0730066357,38.2944111 5.79581477,34.9438628 11.6545973,35.0606734 C17.5133798,35.1774841 17.9860973,35.6912682 17.9860973,35.6912682 L18.0431337,44.4032413 Z" id="Path-1" sketch:type="MSShapeGroup"></path>
            <path d="M25.1754257,34.4086329 L25.1754257,71.3915761 L24.0130196,72.6274344 L33.9831789,72.6274344 L32.9404342,71.286973 L32.9404342,52.5430943 L56.6122355,73.3516994 L56.7230774,36.6290133 L57.9942106,35.5 L47.9744335,35.5 L49.2652021,36.8135744 L49.1543602,55.825477 L25.1754257,34.4086329 Z" id="Path-2" sketch:type="MSShapeGroup"></path>
            <path d="M73.1721714,36.5919017 L74.5268678,35.5 L63.8483997,35.5 L65.2240222,36.7703961 L65.2240222,71.5525666 L63.6503448,72.980636 L74.9349543,72.980636 L73.1721711,71.1498097 L73.1721714,36.5919017 Z" id="Path-2-Copy" sketch:type="MSShapeGroup"></path>
            <path d="M90.1721714,36.5919017 L91.5268678,35.5 L80.8483997,35.5 L82.2240222,36.7703961 L82.2240222,71.5525666 L80.6503448,72.980636 L91.9349543,72.980636 L90.1721711,71.1498097 L90.1721714,36.5919017 Z" id="Path-2-Copy-2" sketch:type="MSShapeGroup"></path>
            <circle id="Oval-1" sketch:type="MSShapeGroup" cx="68.9349543" cy="23.5" r="6"></circle>
            <circle id="Oval-1-Copy" sketch:type="MSShapeGroup" cx="85.9349543" cy="23.5" r="6"></circle>
            <path d="M86.4349543,12.5 C89.886734,12.5 92.6849543,9.70177969 92.6849543,6.25 C92.6849543,2.79822031 89.886734,0 86.4349543,0 C82.9831746,0 80.1849543,2.79822031 80.1849543,6.25 C80.1849543,9.70177969 82.9831746,12.5 86.4349543,12.5 L86.4349543,12.5 Z M86.4349543,10.7692308 C83.9390521,10.7692308 81.9157235,8.74590223 81.9157235,6.25 C81.9157235,3.75409777 83.9390521,1.73076923 86.4349543,1.73076923 C88.9308565,1.73076923 90.9541851,3.75409777 90.9541851,6.25 C90.9541851,8.74590223 88.9308565,10.7692308 86.4349543,10.7692308 L86.4349543,10.7692308 Z" id="Shape" sketch:type="MSShapeGroup"></path>
            <path d="M69.2926495,12.5 C72.7444292,12.5 75.5426495,9.70177969 75.5426495,6.25 C75.5426495,2.79822031 72.7444292,0 69.2926495,0 C65.8408699,0 63.0426495,2.79822031 63.0426495,6.25 C63.0426495,9.70177969 65.8408699,12.5 69.2926495,12.5 L69.2926495,12.5 Z M69.2926495,10.7692308 C66.7967473,10.7692308 64.7734188,8.74590223 64.7734188,6.25 C64.7734188,3.75409777 66.7967473,1.73076923 69.2926495,1.73076923 C71.7885518,1.73076923 73.8118803,3.75409777 73.8118803,6.25 C73.8118803,8.74590223 71.7885518,10.7692308 69.2926495,10.7692308 L69.2926495,10.7692308 Z" id="Shape-Copy" sketch:type="MSShapeGroup"></path>
            <path d="M123.88157,35.5768229 C123.88157,35.5768229 120.550515,34.7348633 117.092507,34.7348633 C111.375059,34.7348633 95.5179621,36.875 95.5179621,53.8470058 C95.5179621,70.2076836 109.743385,72.8991432 117.439511,72.9322929 C123.542019,72.9585784 123.968808,71.9977214 123.968808,71.9977214 L123.881569,63.2314453 C123.881569,63.2314453 122.265223,64.417934 121.425189,64.9287109 C120.334388,65.5919645 119.720973,65.3776035 117.092507,65.3776035 C112.439838,65.3776036 104.65696,63.1523446 104.656959,53.8470058 C104.656959,44.5416671 111.943745,42.4765624 117.092507,42.4765625 C119.599539,42.4765625 122.334695,42.921875 122.334695,42.921875 L123.88157,44.0761719 L123.88157,35.5768229 Z" id="Path-9" sketch:type="MSShapeGroup"></path>
        </g>
    </g>
</svg>